<svg width="80" height="81" viewBox="0 0 80 81" fill="none" xmlns="http://www.w3.org/2000/svg">
<rect x="0.5" y="1.2395" width="79" height="79" rx="19.4726" stroke="#336791"/>
<rect x="8" y="8.7395" width="64" height="64" rx="16.0274" fill="#336791"/>
<path d="M49.6101 18.7395C47.8495 18.7524 46.0986 19.0013 44.4041 19.4795L44.2841 19.5155C43.2167 19.3327 42.1369 19.2317 41.0541 19.2135C38.8281 19.1755 36.9141 19.6995 35.3741 20.5735C33.8541 20.0615 30.7021 19.1795 27.3801 19.3555C25.0661 19.4775 22.5421 20.1595 20.6721 22.0755C18.8061 23.9915 17.8201 26.9555 18.0281 30.9895C18.0841 32.1035 18.4101 33.9175 18.9541 36.2695C19.4941 38.6195 20.2581 41.3695 21.2081 43.8795C22.1581 46.3915 23.2001 48.6475 24.8281 50.1795C25.6401 50.9475 26.7581 51.5935 28.0761 51.5395C29.0021 51.5035 29.8401 51.1095 30.5621 50.5275C30.9141 50.9775 31.2901 51.1735 31.6321 51.3555C32.0621 51.5835 32.4821 51.7395 32.9161 51.8435C34.118 52.1511 35.3697 52.2131 36.5961 52.0255C37.1301 51.9395 37.6921 51.7715 38.2521 51.5315C38.2721 52.1355 38.2961 52.7275 38.3221 53.3275C38.3981 55.2275 38.4481 56.9815 39.0361 58.5195C39.1301 58.7715 39.3881 60.0655 40.4101 61.2075C41.4301 62.3515 43.4301 63.0635 45.7061 62.5915C47.3121 62.2575 49.3561 61.6555 50.7121 59.7835C52.0521 57.9315 52.6581 55.2735 52.7781 50.9655C52.8081 50.7335 52.8441 50.5355 52.8821 50.3495L53.2021 50.3775H53.2381C54.9521 50.4535 56.8121 50.2175 58.3661 49.5175C59.7421 48.8975 60.7821 48.2735 61.5401 47.1635C61.7301 46.8895 61.9381 46.5575 61.9941 45.9835C62.0501 45.4135 61.7141 44.5175 61.1521 44.1055C60.0261 43.2775 59.3201 43.5915 58.5621 43.7455C57.8161 43.9055 57.0561 43.9935 56.2901 44.0115C58.4761 40.4435 60.0421 36.6515 60.9361 33.2955C61.4641 31.3155 61.7621 29.4895 61.7861 27.8935C61.8101 26.2975 61.6761 24.8835 60.6901 23.6595C57.6081 19.8395 53.2741 18.7835 49.9221 18.7475C49.8181 18.7455 49.7141 18.7435 49.6101 18.7455V18.7395ZM49.5221 19.9135C52.6921 19.8835 56.7441 20.7475 59.6521 24.3535C60.3061 25.1635 60.5001 26.3475 60.4781 27.8075C60.4541 29.2655 60.1761 31.0095 59.6681 32.9215C58.6821 36.6255 56.8181 40.9415 54.1921 44.8175C54.2856 44.8817 54.3863 44.9348 54.4921 44.9755C55.0401 45.1955 56.2881 45.3835 58.7821 44.8875C59.4081 44.7575 59.8681 44.6715 60.3441 45.0235C60.4583 45.1178 60.5489 45.2374 60.609 45.3728C60.669 45.5081 60.6968 45.6556 60.6901 45.8035C60.6641 46.027 60.5792 46.2396 60.4441 46.4195C59.9641 47.1215 59.0121 47.7875 57.7921 48.3355C56.7141 48.8235 55.1661 49.0775 53.7941 49.0935C53.1061 49.0995 52.4721 49.0475 51.9341 48.8855L51.8981 48.8735C51.6901 50.8155 51.2121 54.6535 50.9021 56.4035C50.6521 57.8155 50.2161 58.9375 49.3821 59.7775C48.5501 60.6175 47.3741 61.1235 45.7901 61.4535C43.8281 61.8615 42.3981 61.4215 41.4761 60.6675C40.5561 59.9175 40.1341 58.9195 39.8801 58.3075C39.7061 57.8875 39.6161 57.3415 39.5281 56.6115C39.4315 55.7375 39.3668 54.8602 39.3341 53.9815C39.2764 52.4402 39.2578 50.8977 39.2781 49.3555C38.4581 50.0835 37.4381 50.5675 36.3441 50.7495C35.0441 50.9635 33.8801 50.7535 33.1861 50.5855C32.8458 50.5018 32.5168 50.3776 32.2061 50.2155C31.8821 50.0495 31.5761 49.8615 31.3721 49.4895C31.2519 49.2772 31.2135 49.0282 31.2641 48.7895C31.3295 48.547 31.4746 48.3335 31.6761 48.1835C32.0521 47.8875 32.5461 47.7235 33.2921 47.5715C34.6521 47.3015 35.1261 47.1155 35.4141 46.8935C35.6601 46.7035 35.9381 46.3195 36.4301 45.7535C36.4277 45.7289 36.4257 45.7042 36.4241 45.6795C35.5468 45.6557 34.6866 45.4305 33.9101 45.0215C33.6281 45.3115 32.1801 46.7975 30.4141 48.8575C29.6721 49.7195 28.8521 50.2135 27.9861 50.2495C27.1201 50.2855 26.3381 49.8615 25.6741 49.2375C24.3441 47.9855 23.2841 45.8315 22.3601 43.3975C21.4401 40.9615 20.6881 38.2495 20.1561 35.9395C19.6201 33.6295 19.3041 31.7675 19.2601 30.8695C19.0601 27.0515 19.9801 24.4795 21.5601 22.8575C23.1401 21.2355 25.3041 20.6215 27.4161 20.5035C31.2041 20.2915 34.8021 21.5735 35.5301 21.8495C36.9321 20.9255 38.7381 20.3495 40.9961 20.3855C42.0664 20.4001 43.1317 20.5343 44.1721 20.7855L44.2101 20.7695C44.6681 20.6135 45.1341 20.4815 45.6061 20.3775C46.891 20.0869 48.2029 19.9327 49.5201 19.9175L49.5221 19.9135ZM49.8081 21.1415H49.5341C48.452 21.1561 47.3738 21.274 46.3141 21.4935C48.4177 22.4095 50.2658 23.8252 51.6981 25.6175C52.5655 26.69 53.2852 27.8738 53.8381 29.1375C54.0461 29.6215 54.1861 30.0315 54.2641 30.3475C54.3041 30.5075 54.3321 30.6415 54.3401 30.7815C54.3478 30.8701 54.3404 30.9594 54.3181 31.0455L54.3061 31.0695C54.3641 32.6755 53.9541 33.7635 53.9041 35.2955C53.8661 36.4075 54.1581 37.7135 54.2301 39.1355C54.2981 40.4755 54.1321 41.9455 53.2361 43.3895C53.3121 43.4775 53.3801 43.5655 53.4521 43.6535C55.8221 40.0335 57.5321 36.0255 58.4421 32.6115C58.9281 30.7715 59.1881 29.1055 59.2101 27.7855C59.2301 26.4655 58.9761 25.5075 58.6521 25.1095C56.1161 21.9635 52.6861 21.1635 49.8081 21.1415ZM40.7581 21.6115C38.5241 21.6155 36.9201 22.2715 35.7061 23.2515C34.4521 24.2655 33.6121 25.6515 33.0601 27.0735C32.5258 28.4946 32.1991 29.9852 32.0901 31.4995L32.1161 31.4855C32.7901 31.1175 33.6761 30.7515 34.6241 30.5395C35.5741 30.3275 36.5961 30.2615 37.5221 30.6095C38.4481 30.9595 39.2141 31.7775 39.4921 33.0215C40.8221 38.9935 39.0781 41.2135 38.4341 42.8875C38.1904 43.4945 37.9814 44.1148 37.8081 44.7455C37.8901 44.7255 37.9721 44.7055 38.0521 44.6975C38.4034 44.6785 38.754 44.7472 39.0721 44.8975C39.7201 45.1575 40.1641 45.7015 40.4041 46.3255C40.4661 46.4895 40.5121 46.6655 40.5381 46.8455C40.5661 46.9215 40.5781 46.9995 40.5761 47.0795C40.5043 49.3631 40.5123 51.6485 40.6001 53.9315C40.6441 54.9195 40.7081 55.7875 40.7901 56.4735C40.8701 57.1575 40.9861 57.6775 41.0601 57.8535C41.3001 58.4415 41.6541 59.2095 42.2941 59.7315C42.9341 60.2515 43.8481 60.5995 45.5221 60.2515C46.9741 59.9495 47.8701 59.5315 48.4701 58.9255C49.0661 58.3235 49.4241 57.4855 49.6521 56.1995C49.9941 54.2735 50.6821 48.6915 50.7641 47.6395C50.7281 46.8495 50.8481 46.2395 51.1081 45.7755C51.3781 45.2995 51.7941 45.0075 52.1521 44.8495C52.3321 44.7695 52.5001 44.7175 52.6381 44.6795C52.4916 44.4756 52.3382 44.2768 52.1781 44.0835C51.6625 43.4774 51.2386 42.7988 50.9201 42.0695C50.768 41.7688 50.6059 41.4734 50.4341 41.1835C50.1841 40.7435 49.8661 40.1935 49.5341 39.5755C48.8681 38.3375 48.1441 36.8375 47.7681 35.3755C47.3941 33.9175 47.3381 32.4075 48.2981 31.3415C49.1501 30.3955 50.6421 30.0035 52.8841 30.2235C52.8181 30.0315 52.7781 29.8715 52.6661 29.6155C52.1575 28.4549 51.4963 27.3673 50.7001 26.3815C48.8001 24.0255 45.7261 21.6895 40.9741 21.6135L40.7581 21.6115ZM28.2061 21.7055C27.9661 21.7055 27.7261 21.7135 27.4861 21.7255C25.5781 21.8315 23.7741 22.3695 22.4841 23.6975C21.1901 25.0235 20.3401 27.1995 20.5241 30.8035C20.5621 31.4835 20.8681 33.3955 21.3921 35.6635C21.9161 37.9355 22.6601 40.6055 23.5521 42.9635C24.4441 45.3235 25.5281 47.3775 26.5561 48.3495C27.0741 48.8355 27.5241 49.0315 27.9321 49.0155C28.3421 48.9955 28.8341 48.7675 29.4381 48.0655C30.5381 46.7783 31.6787 45.5264 32.8581 44.3115C32.0252 43.6123 31.3837 42.7128 30.9941 41.6975C30.6096 40.6913 30.4924 39.6025 30.6541 38.5375C30.8481 37.1815 30.8741 35.9135 30.8521 34.9135C30.8281 33.9375 30.7561 33.2895 30.7561 32.8835V32.8275C30.7543 30.7138 31.133 28.617 31.8741 26.6375C32.4021 25.2735 33.1901 23.8875 34.3721 22.7655C33.2121 22.3955 31.1521 21.8315 28.9221 21.7255C28.6823 21.713 28.4422 21.7063 28.2021 21.7055H28.2061ZM51.6341 31.3895C50.3521 31.4055 49.6321 31.7275 49.2541 32.1475C48.7181 32.7435 48.6681 33.7875 49.0001 35.0755C49.3301 36.3635 50.0141 37.8055 50.6581 39.0015C50.9781 39.6015 51.2901 40.1415 51.5421 40.5775C51.7961 41.0175 51.9821 41.3295 52.0941 41.5975C52.1981 41.8415 52.3141 42.0575 52.4301 42.2595C52.9261 41.2415 53.0161 40.2435 52.9641 39.2015C52.8981 37.9135 52.5901 36.5955 52.6361 35.2615C52.6861 33.7015 53.0041 32.6835 53.0321 31.4775C52.5684 31.4192 52.1015 31.3898 51.6341 31.3895ZM36.0741 31.5995C35.6824 31.6031 35.2922 31.6487 34.9101 31.7355C34.1507 31.9143 33.4179 32.1913 32.7301 32.5595C32.5001 32.6795 32.2781 32.8195 32.0701 32.9775L32.0301 33.0135C32.0421 33.2815 32.0961 33.9315 32.1201 34.8855C32.1401 35.9315 32.1161 37.2655 31.9081 38.7055C31.4561 41.8415 33.8001 44.4375 36.5561 44.4415C36.7161 43.7975 36.9821 43.1455 37.2461 42.4575C38.0141 40.4515 39.5241 38.9895 38.2521 33.2795C38.0441 32.3455 37.6321 31.9675 37.0641 31.7535C36.7457 31.6444 36.4106 31.5922 36.0741 31.5995ZM51.0341 31.9735H51.1301C51.2541 31.9775 51.3701 31.9915 51.4701 32.0135C51.5621 32.0318 51.6502 32.0664 51.7301 32.1155C51.7663 32.1372 51.7976 32.1662 51.822 32.2007C51.8465 32.2351 51.8635 32.2742 51.8721 32.3155V32.3315C51.8753 32.4192 51.8516 32.5057 51.8041 32.5795C51.748 32.6801 51.678 32.7724 51.5961 32.8535C51.4027 33.0596 51.1469 33.1967 50.8681 33.2435C50.595 33.2758 50.3194 33.2084 50.0921 33.0535C50.0001 32.9937 49.9173 32.921 49.8461 32.8375C49.785 32.7731 49.7434 32.6926 49.7261 32.6055C49.7219 32.5627 49.7268 32.5196 49.7406 32.4789C49.7544 32.4382 49.7768 32.4009 49.8061 32.3695C49.8689 32.3011 49.9443 32.2454 50.0281 32.2055C50.3441 32.0577 50.6874 31.9773 51.0361 31.9695L51.0341 31.9735ZM36.2581 32.2815C36.3581 32.2815 36.4641 32.2915 36.5721 32.3055C36.8601 32.3455 37.1181 32.4195 37.3141 32.5295C37.4101 32.5795 37.4941 32.6435 37.5661 32.7235C37.6035 32.7661 37.6321 32.8158 37.6501 32.8695C37.668 32.9229 37.6742 32.9795 37.6681 33.0355C37.6495 33.1414 37.6001 33.2395 37.5261 33.3175C37.4486 33.4105 37.3576 33.4914 37.2561 33.5575C37.0078 33.7268 36.7064 33.8 36.4081 33.7635C36.1052 33.7155 35.8267 33.5685 35.6161 33.3455C35.5274 33.2568 35.452 33.1558 35.3921 33.0455C35.3298 32.9496 35.3023 32.8352 35.3141 32.7215C35.3421 32.5215 35.5121 32.4215 35.6741 32.3615C35.8618 32.3039 36.0581 32.2795 36.2541 32.2895L36.2581 32.2815ZM53.3781 45.7455H53.3721C53.0941 45.8455 52.8661 45.8855 52.6721 45.9655C52.4791 46.0377 52.3191 46.1778 52.2221 46.3595C52.1021 46.5695 52.0021 46.9435 52.0321 47.5795C52.1181 47.6367 52.2126 47.6799 52.3121 47.7075C52.6341 47.8035 53.1761 47.8675 53.7821 47.8575C54.9861 47.8435 56.4701 47.5715 57.2581 47.2155C57.9041 46.9235 58.5041 46.5435 59.0401 46.0875C56.4061 46.6155 54.9201 46.4755 54.0061 46.1095C53.78 46.0188 53.5685 45.8955 53.3781 45.7435V45.7455ZM38.2021 45.9175H38.1621C38.0621 45.9255 37.9161 45.9575 37.6361 46.2615C36.9761 46.9775 36.7481 47.4255 36.2041 47.8455C35.6641 48.2655 34.9581 48.4875 33.5501 48.7675C33.1041 48.8555 32.8501 48.9535 32.6781 49.0315C32.7341 49.0755 32.7281 49.0875 32.8101 49.1295C33.0161 49.2395 33.2821 49.3355 33.4941 49.3895C34.1001 49.5355 35.0941 49.7075 36.1321 49.5355C37.1681 49.3635 38.2481 48.8815 39.1681 47.6295C39.3281 47.4135 39.3441 47.0935 39.2141 46.7495C39.0801 46.4095 38.7921 46.1135 38.5881 46.0295C38.466 45.9732 38.3357 45.9367 38.2021 45.9215V45.9175Z" fill="white"/>
</svg>
