<svg width="81" height="80" viewBox="0 0 81 80" fill="none" xmlns="http://www.w3.org/2000/svg">
<rect x="0.832031" y="0.5" width="79" height="79" rx="19.4726" stroke="#FF4F0F"/>
<rect x="8.33203" y="8" width="64" height="64" rx="16.0274" fill="#FF4F0F"/>
<path d="M51.1346 40.5333C50.4383 39.837 49.6114 39.2849 48.7014 38.9088C47.7913 38.5326 46.8159 38.3398 45.8312 38.3413C44.8464 38.3429 43.8717 38.5388 42.9628 38.9178C42.0539 39.2968 41.2287 39.8515 40.5346 40.55C39.8372 41.2452 39.2838 42.0712 38.9063 42.9807C38.5287 43.8902 38.3343 44.8653 38.3343 45.85C38.3343 46.8347 38.5287 47.8098 38.9063 48.7193C39.2838 49.6288 39.8372 50.4548 40.5346 51.15C41.7363 52.3473 43.3077 53.1027 44.9933 53.2933C46.6788 53.484 48.3793 53.0986 49.818 52.2L55.0013 57.3167L57.318 55L52.168 49.8167C54.0513 46.8667 53.618 43 51.1346 40.5333ZM48.7846 48.7833C47.1513 50.4167 44.518 50.4 42.8846 48.7833C41.268 47.15 41.268 44.5167 42.9013 42.8833C44.518 41.2667 47.1513 41.2667 48.7846 42.8833C50.4013 44.5167 50.4013 47.15 48.7846 48.7833ZM38.168 53.5C37.0803 52.4011 36.2394 51.0829 35.7013 49.6333C30.4513 48.75 26.668 46.2667 26.668 43.3333V48.3333C26.668 52.0167 32.6346 55 40.0013 55C39.3346 54.5667 38.718 54.0667 38.168 53.5ZM26.668 35V40C26.668 42.8 30.118 45.2 35.0013 46.1667V45.8333C35.0013 44.2833 35.3346 42.75 35.968 41.35C30.568 40.5 26.668 37.9833 26.668 35ZM40.0013 25C32.6346 25 26.668 27.9833 26.668 31.6667C26.668 35 31.668 37.8 38.0846 38.3333H38.168C40.168 36.2333 42.9346 35 45.8346 35C47.3513 35 48.8513 35.3167 50.2346 35.9333C51.0754 35.5498 51.8027 34.9554 52.3459 34.2078C52.8891 33.4602 53.2297 32.5848 53.3346 31.6667C53.3346 27.9833 47.368 25 40.0013 25Z" fill="#FAFAFA"/>
</svg>
