<svg width="80" height="81" viewBox="0 0 80 81" fill="none" xmlns="http://www.w3.org/2000/svg">
<rect x="0.5" y="1.2395" width="79" height="79" rx="19.4726" stroke="#727579"/>
<rect x="8" y="8.7395" width="64" height="64" rx="16.0274" fill="#727579"/>
<path d="M22 22.7395H58C58.5304 22.7395 59.0391 22.9502 59.4142 23.3253C59.7893 23.7004 60 24.2091 60 24.7395V56.7395C60 57.2699 59.7893 57.7786 59.4142 58.1537C59.0391 58.5288 58.5304 58.7395 58 58.7395H22C21.4696 58.7395 20.9609 58.5288 20.5858 58.1537C20.2107 57.7786 20 57.2699 20 56.7395V24.7395C20 24.2091 20.2107 23.7004 20.5858 23.3253C20.9609 22.9502 21.4696 22.7395 22 22.7395ZM40 46.7395V50.7395H52V46.7395H40ZM32.828 40.7395L27.172 46.3955L30 49.2255L38.486 40.7395L30 32.2535L27.172 35.0835L32.828 40.7395Z" fill="white"/>
</svg>
